# xmcd CD database file
#
# Track frame offsets:
#	150
#	39433
#	69640
#	92132
#	111119
#	146371
#	172504
#	212295
#	235243
#	270087
#	308426
#
# Disc length: 4370 seconds
#
# Revision: 0
# Processed by: cddbd v1.5.2PL0 Copyright (c) Steve Scherf et al.
# Submitted via: CDex 1.51
#
DISCID=7d11100b
DTITLE=Andrew Fawcett - The Chase
DYEAR=2004
DGENRE=Jazz
TTITLE0=The Chase
TTITLE1=Pau De Acucar
TTITLE2=Emanuela
TTITLE3=Virgo
TTITLE4=Here And Now
TTITLE5=Optimal Solution
TTITLE6=Windows
TTITLE7=Scene
TTITLE8=Lubochka
TTITLE9=Dolphin Dance
TTITLE10=The Chase
EXTD=YEAR: 2004
EXTT0=
EXTT1=
EXTT2=
EXTT3=
EXTT4=
EXTT5=
EXTT6=
EXTT7=
EXTT8=
EXTT9=
EXTT10=
PLAYORDER=
